<svg width="64" height="64" version="1" xmlns="http://www.w3.org/2000/svg">
 <path d="m4.0000004 56.200069v1.999971c0 1.549978 1.2495821 2.79996 2.80076 2.79996h50.39928c1.549977 0 2.79996-1.249982 2.79996-2.79996v-1.999971c0 1.549977-1.249983 2.79996-2.79996 2.79996h-50.39928c-1.5503779 0-2.79996-1.249983-2.79996-2.79996z" style="opacity:.2"/>
 <rect x="4" y="4" width="56" height="56" rx="2.8" ry="2.8" style="fill:#4f4f4f"/>
 <path d="m6.8007812 4c-1.5511778 0-2.8007812 1.2496034-2.8007812 2.8007812v1.0019532c0-1.5511778 1.2496034-2.8007813 2.8007812-2.8007813h50.398438c1.549977 0 2.800781 1.2496035 2.800781 2.8007813v-1.0019532c0-1.5511777-1.250804-2.8007812-2.800781-2.8007812h-50.398438z" style="fill:#ffffff;opacity:.2"/>
 <g transform="scale(2)">
  <path d="m14 10v4h-4v4h4v4h4v-4h4v-4h-4v-4z" style="fill:#ffffff"/>
  <rect x="18" y="10" width="4" height="4" style="fill:#ffd2a8"/>
  <rect x="18" y="18" width="4" height="4" style="fill:#9182d7"/>
  <rect x="22" y="14" width="4" height="4" style="fill:#ff90b8"/>
  <rect x="14" y="6" width="4" height="4" style="fill:#df574d"/>
  <rect x="10" y="10" width="4" height="4" style="fill:#fecd38"/>
  <rect x="10" y="18" width="4" height="4" style="fill:#79de70"/>
  <rect x="6" y="14" width="4" height="4" style="fill:#feff69"/>
  <rect x="14" y="22" width="4" height="4" style="fill:#50beee"/>
 </g>
</svg>
