<svg width="64" height="64" version="1" xmlns="http://www.w3.org/2000/svg">
 <g>
  <path d="m4.0000004 56.200069v1.999971c0 1.549978 1.2495821 2.79996 2.80076 2.79996h50.39928c1.549977 0 2.79996-1.249982 2.79996-2.79996v-1.999971c0 1.549977-1.249983 2.79996-2.79996 2.79996h-50.39928c-1.5503779 0-2.79996-1.249983-2.79996-2.79996z" style="opacity:.2"/>
  <rect x="4" y="4" width="56" height="56" rx="2.8" ry="2.8" style="fill:#e4e4e4"/>
  <path d="m6.8007812 4c-1.5511778 0-2.8007812 1.2496034-2.8007812 2.8007812v1.0019532c0-1.5511778 1.2496034-2.8007813 2.8007812-2.8007813h50.398438c1.549977 0 2.800781 1.2496035 2.800781 2.8007813v-1.0019532c0-1.5511777-1.250804-2.8007812-2.800781-2.8007812h-50.398438z" style="fill:#ffffff;opacity:.2"/>
  <path d="m28 13v8h-8v8h-8v8h8v8h8v8h8v-8h8v-8h8v-8h-8v-8h-8v-8z" style="opacity:.2"/>
  <g transform="matrix(2,0,0,2,65.751824,-8.1475772)">
   <path d="m-18.875912 14.073789v4h-4v4h4v4h4v-4h4v-4h-4v-4z" style="fill:#ffffff"/>
   <g transform="translate(-32.875912,4.0737886)">
    <rect x="18" y="10" width="4" height="4" style="fill:#ff8074"/>
    <rect x="18" y="18" width="4" height="4" style="fill:#7767c0"/>
    <rect x="22" y="14" width="4" height="4" style="fill:#f9548f"/>
    <rect x="14" y="6" width="4" height="4" style="fill:#c2352a"/>
    <rect x="10" y="10" width="4" height="4" style="fill:#e97e10"/>
    <rect x="10" y="18" width="4" height="4" style="fill:#4bae4f"/>
    <rect x="6" y="14" width="4" height="4" style="fill:#ddb400"/>
    <rect x="14" y="22" width="4" height="4" style="fill:#248afd"/>
   </g>
  </g>
 </g>
</svg>
