<svg xmlns="http://www.w3.org/2000/svg" width="64" height="64" version="1.1">
 <path style="opacity:0.2" d="M 56,12 H 8 c -2.208986,0 -4,1.791016 -4,4 v 34 c 0,2.208986 1.791014,4 4,4 h 48 c 2.208985,0 4,-1.791014 4,-4 V 16 c 0,-2.208984 -1.791015,-4 -4,-4 z m 0,0"/>
 <path style="fill:#248afd" d="M 56,11 H 8 c -2.208986,0 -4,1.791016 -4,4 v 34 c 0,2.208986 1.791014,4 4,4 h 48 c 2.208985,0 4,-1.791014 4,-4 V 15 c 0,-2.208984 -1.791015,-4 -4,-4 z m 0,0"/>
 <path style="opacity:0.2" d="m 56,16 v 6.667969 C 55.999283,23.403332 55.303723,23.999282 54.568359,24 53.83147,24.00144 53.000718,23.404859 53,22.667969 V 19 H 49.332031 C 48.595142,18.999282 47.99856,18.168529 48,17.431641 48.000718,16.696278 48.596668,16.000718 49.332031,16 Z M 14.667969,16 C 15.403332,16.000718 15.999282,16.696278 16,17.431641 16.00144,18.168529 15.404858,18.999282 14.667969,19 H 11 v 3.667969 C 10.999282,23.404859 10.16853,24.0014 9.431641,24 8.696278,23.999282 8.000718,23.403332 8,22.667969 V 16 Z m 4.964843,8 8.730469,0.0039 h 8.171875 c 0.807198,0 1.432599,0.754956 1.453125,1.496094 0,0 0.02334,-0.589085 0.02344,7.421875 L 44.80469,26.0039 45.542971,25.9961 H 46 v 14.011718 h -0.390625 l -0.664063,-0.01562 -6.933593,-7.066407 v 0.02344 l -0.0039,7.507812 C 37.901853,41.563819 37.240741,41.940176 36.515625,42 L 28.351562,41.98047 H 19.6875 c -1.241586,0 -1.622512,-0.811979 -1.6875,-1.566407 V 32.94922 l 0.0039,-7.277344 C 18.003668,24.622869 18.704192,24.001528 19.632812,24 Z m 8.382813,3 c -0.240056,0 -0.482598,0.01521 -0.722656,0.04297 -3.286928,0.39892 -5.635537,3.371948 -5.253907,6.652343 l 0.01172,0.105469 c 0.443182,3.271188 3.455258,5.571914 6.742188,5.148438 3.129904,-0.42655 5.401514,-3.19057 5.195312,-6.335938 C 33.785153,29.470973 31.176373,27.01841 28.015625,27 Z m 0.08203,3 c 1.449996,0.04502 2.691787,1.142588 2.878906,2.628906 0.20357,1.637172 -0.948659,3.132469 -2.585937,3.347656 -1.637272,0.21227 -3.142263,-0.939956 -3.363281,-2.574218 l -0.0078,-0.05469 c -0.191952,-1.64008 0.9809,-3.126475 2.621082,-3.324216 0.153502,-0.0186 0.307033,-0.0281 0.45703,-0.02344 z M 54.568359,42 C 55.303723,42.000718 55.999283,42.596668 56,43.332031 V 50 H 49.332031 C 48.596668,49.999282 48.000718,49.303722 48,48.568359 47.99856,47.831471 48.595142,47.000718 49.332031,47 H 53 V 43.332031 C 53.000718,42.595141 53.83147,41.99856 54.568359,42 Z M 9.431641,42 C 10.16853,41.9986 10.999282,42.595141 11,43.332031 V 47 h 3.667969 C 15.404858,47.000718 16.0014,47.831471 16,48.568359 15.999282,49.303722 15.403332,49.999282 14.667969,50 H 8 V 43.332031 C 8.000718,42.596668 8.696278,42.000718 9.431641,42 Z"/>
 <path style="fill:#ffffff" d="m 19.632812,23 8.73047,0.004 h 8.171874 c 0.807198,0 1.4326,0.754956 1.453126,1.496094 0,0 0.02334,-0.589084 0.02344,7.421876 l 6.792966,-6.918064 0.738281,-0.0078 H 46 v 14.011718 h -0.390625 l -0.664063,-0.0156 -6.933594,-7.066406 v 0.02344 l -0.004,7.507814 c -0.10596,1.106788 -0.766978,1.483116 -1.492094,1.54294 l -8.164062,-0.0196 H 19.6875 c -1.241586,0 -1.622512,-0.811978 -1.6875,-1.566406 V 31.94915 l 0.004,-7.277342 C 18.003762,23.622802 18.704192,23.001528 19.632812,23 Z m 8.382812,3 c -0.240056,0 -0.482598,0.0152 -0.722656,0.04296 -3.286928,0.39892 -5.635536,3.371948 -5.253906,6.652344 l 0.0118,0.10548 c 0.443182,3.271188 3.455256,5.571912 6.742186,5.148436 3.129904,-0.42655 5.401516,-3.190568 5.195314,-6.335936 -0.203128,-3.142308 -2.81191,-5.594872 -5.972658,-5.613282 z m 0.08204,3 c 1.449996,0.04502 2.691786,1.142588 2.878906,2.628906 0.20357,1.637172 -0.94866,3.132468 -2.585938,3.347656 -1.637272,0.21227 -3.142262,-0.939956 -3.36328,-2.574218 l -0.0078,-0.05468 c -0.19194,-1.640082 0.98089,-3.126484 2.621072,-3.324226 0.153502,-0.0186 0.307034,-0.0281 0.457032,-0.02344 z"/>
 <path style="fill:#50beee" d="m 56,15 v 6.667969 C 55.999283,22.403332 55.303723,22.999282 54.568359,23 53.83147,23.00144 53.000718,22.404859 53,21.667969 V 18 H 49.332031 C 48.595142,17.999282 47.99856,17.168529 48,16.431641 48.000718,15.696278 48.596668,15.000718 49.332031,15 Z M 14.667969,15 C 15.403332,15.000718 15.999282,15.696278 16,16.431641 16.00144,17.168529 15.404858,17.999282 14.667969,18 H 11 v 3.667969 C 10.999282,22.404859 10.16853,23.0014 9.431641,23 8.696278,22.999282 8.000718,22.403332 8,21.667969 V 15 Z m 39.90039,26 C 55.303723,41.000718 55.999283,41.596668 56,42.332031 V 49 H 49.332031 C 48.596668,48.999282 48.000718,48.303722 48,47.568359 47.99856,46.831471 48.595142,46.000718 49.332031,46 H 53 V 42.332031 C 53.000718,41.595141 53.83147,40.99856 54.568359,41 Z M 9.431641,41 C 10.16853,40.9986 10.999282,41.595141 11,42.332031 V 46 h 3.667969 C 15.404858,46.000718 16.0014,46.831471 16,47.568359 15.999282,48.303722 15.403332,48.999282 14.667969,49 H 8 V 42.332031 C 8.000718,41.596668 8.696278,41.000718 9.431641,41 Z"/>
 <path style="opacity:0.2;fill:#ffffff" d="m 56,11 c 2.208985,0 4,1.791016 4,4 v 1 c 0,-2.208984 -1.791015,-4 -4,-4 H 8 c -2.208986,0 -4,1.791016 -4,4 v -1 c 0,-2.208984 1.791014,-4 4,-4 z"/>
</svg>
