<svg xmlns="http://www.w3.org/2000/svg" width="64" height="64" version="1.1">
 <g>
  <rect style="fill:#50beee" width="44" height="44" x="4" y="8"/>
  <path style="fill:#248afd" d="M 8,4 V 8 H 48 V 4 Z m 0,8 v 4 H 44 V 12 Z M 4,52 v 4 h 44 v -4 z"/>
  <path style="opacity:0.2;fill:#1a1a1a" d="M 8,17 V 37 H 44 V 17 Z m 8,24 v 4 h 4 v -4 z m 4,4 v 4 h 12 v -4 z m 12,0 h 4 v -4 h -4 z"/>
  <path style="fill:#ffffff" d="M 8,16 V 36 H 44 V 16 Z m 8,24 v 4 h 4 v -4 z m 4,4 v 4 h 12 v -4 z m 12,0 h 4 v -4 h -4 z"/>
  <path style="opacity:0.2" d="m 48,9 v 44 h 4 V 37 h 4 V 33 H 52 V 9 Z m 8,24 h 4 V 25 H 56 Z M 16,21 v 12 h 4 V 21 Z m 16,0 v 12 h 4 V 21 Z M 8,57 v 4 h 12 v -4 z m 24,0 v 4 h 12 v -4 z"/>
  <path style="fill:#7767c0" d="m 48,8 v 44 h 4 V 36 h 4 V 32 H 52 V 8 Z m 8,24 h 4 V 24 H 56 Z M 16,20 v 12 h 4 V 20 Z m 16,0 v 12 h 4 V 20 Z M 8,56 v 4 h 12 v -4 z m 24,0 v 4 h 12 v -4 z"/>
  <rect style="opacity:0.2" width="36" height="1" x="8" y="16"/>
  <rect style="opacity:0.2" width="36" height="1" x="8" y="12"/>
  <rect style="opacity:0.2" width="44" height="1" x="4" y="52"/>
  <rect style="opacity:0.2" width="12" height="2" x="8" y="56"/>
  <rect style="opacity:0.2" width="12" height="2" x="32" y="56"/>
 </g>
</svg>
