<svg width="22" height="22" version="1" xmlns="http://www.w3.org/2000/svg">
 <rect x="1" y="1" width="20" height="20" rx="1" ry="1" style="fill:#e4e4e4"/>
 <path d="m2 1c-0.554 0-1 0.446-1 1v0.5c0-0.554 0.446-1 1-1h18c0.554 0 1 0.446 1 1v-0.5c0-0.554-0.446-1-1-1h-18z" fill="#fff" opacity=".2"/>
 <path d="m2 21.5c-0.554 0-1-0.446-1-1v-0.5c0 0.554 0.446 1 1 1h18c0.554 0 1-0.446 1-1v0.5c0 0.554-0.446 1-1 1h-18z" opacity=".2"/>
 <g transform="translate(19,1.0000002)">
  <rect x="-7.0542269" y="10.872923" width="2" height="2" style="fill:#9182d7"/>
  <g transform="translate(.054227 .1270769)">
   <rect x="-11.054227" y="10.872923" width="2" height="2" style="fill:#79de70"/>
   <path d="m-9.054227 6.8729231v2h-2v1.9999999h2v2h2v-2h2v-1.9999999h-2v-2z" style="fill:#ffffff"/>
   <rect x="-9.0542269" y="4.8729229" width="2" height="2" style="fill:#df574d"/>
   <rect x="-7.0542269" y="6.8729229" width="2" height="2" style="fill:#ffd2a8"/>
   <rect x="-5.0542269" y="8.8729229" width="2" height="2" style="fill:#ff90b8"/>
   <rect x="-9.0542269" y="12.872923" width="2" height="2" style="fill:#50beee"/>
   <rect x="-13.054227" y="8.8729229" width="2" height="2" style="fill:#feff69"/>
   <rect x="-11.054227" y="6.8729229" width="2" height="2" style="fill:#fecd38"/>
  </g>
 </g>
</svg>
