<svg width="22" height="22" version="1" xmlns="http://www.w3.org/2000/svg">
 <rect x="1" y="1" width="20" height="20" rx="1" ry="1" style="fill:#e4e4e4"/>
 <path d="m2 1c-0.554 0-1 0.446-1 1v0.5c0-0.554 0.446-1 1-1h18c0.554 0 1 0.446 1 1v-0.5c0-0.554-0.446-1-1-1h-18z" fill="#fff" opacity=".2"/>
 <path d="m2 21.5c-0.554 0-1-0.446-1-1v-0.5c0 0.554 0.446 1 1 1h18c0.554 0 1-0.446 1-1v0.5c0 0.554-0.446 1-1 1h-18z" opacity=".2"/>
 <path d="m9.9999996 6.5v2.0000003h-1.9999996v1.9999997h-2v2h2v2h1.9999996v2h2.0000004v-2h2v-2h2v-2h-2v-1.9999997h-2v-2.0000003z" style="opacity:.2"/>
 <rect x="12" y="12" width="2" height="2" style="fill:#7767c0"/>
 <rect x="8" y="12" width="2" height="2" style="fill:#4bae4f"/>
 <path d="m10 8.0000002v1.9999998h-2v2h2v2h2v-2h2v-2h-2v-1.9999998z" style="fill:#ffffff"/>
 <rect x="10" y="6" width="2" height="2" style="fill:#c2352a"/>
 <rect x="12" y="8" width="2" height="2" style="fill:#ff8074"/>
 <rect x="14" y="10" width="2" height="2" style="fill:#f9548f"/>
 <rect x="10" y="14" width="2" height="2" style="fill:#248afd"/>
 <rect x="6" y="10" width="2" height="2" style="fill:#ddb400"/>
 <rect x="8" y="8" width="2" height="2" style="fill:#e97e10"/>
</svg>
