<svg xmlns="http://www.w3.org/2000/svg" width="22" height="22" version="1.1">
 <path style="opacity:0.2" d="M 20.5,3.5 H 2.5 C 1.67163,3.5 1,4.1822917 1,5.0238096 V 17.976189 C 1,18.817709 1.67163,19.5 2.5,19.5 h 18 c 0.828369,0 1.5,-0.682291 1.5,-1.523811 V 5.0238096 C 22,4.1822917 21.328369,3.5 20.5,3.5 Z m 0,0"/>
 <path style="fill:#248afd" d="M 20.5,3 H 2.5 C 1.67163,3 1,3.6822917 1,4.5238096 V 17.476189 C 1,18.317709 1.67163,19 2.5,19 h 18 C 21.328369,19 22,18.317709 22,17.476189 V 4.5238096 C 22,3.6822917 21.328369,3 20.5,3 Z m 0,0"/>
 <path style="opacity:0.2" d="M 20,5.5 V 8 A -0.5,0.5 0 0 1 19.5,8.5 -0.5,0.5 0 0 1 19,8 V 6.5 H 17.5 A -0.5,0.5 0 0 1 17,6 -0.5,0.5 0 0 1 17.5,5.5 Z M 5.5,5.5 A -0.5,0.5 0 0 1 6,6 -0.5,0.5 0 0 1 5.5,6.5 H 4 V 8 A -0.5,0.5 0 0 1 3.5,8.5 -0.5,0.5 0 0 1 3,8 V 5.5 Z m 7.992188,3 c 0.27387,0 0.493036,0.2529535 0.5,0.5 0,0 0.0078,-0.1957196 0.0078,2.474609 0,-0.02137 0.493139,-0.586344 1.095703,-1.255859 l 1,-1.2167969 L 16.84375,9 H 17 v 5 H 16.867187 L 16.140625,13.9961 15.117188,12.757818 C 14.50442,12.075827 14.002527,11.501844 14,11.476562 v 0.0059 l -0.002,2.501953 c -0.03598,0.36894 -0.2657,0.495684 -0.511719,0.515625 l -2.972656,-0.0078 H 7.572219 c -0.421251,0 -0.550217,-0.268055 -0.572266,-0.519532 v -2.488281 l 0.002,-2.4277344 C 7.001976,8.7069491 7.239621,8.500509 7.554688,8.5 l 2.960937,0.00195 C 12.460571,8.5019531 13.492188,8.5 13.492188,8.5 Z M 10.5,9.5 c -0.08003,0 -0.160208,0.00641 -0.240234,0.015625 -1.095729,0.1329745 -1.87722,1.123328 -1.75,2.216797 l 0.0039,0.03516 c 0.147739,1.0904 1.150364,1.857956 2.246094,1.716797 1.043419,-0.142191 1.801168,-1.064825 1.732428,-2.113285 C 12.424473,10.323655 11.553665,9.5061375 10.5,9.5 Z m 0.0332,1 c 0.483332,0.01501 0.896611,0.381511 0.958985,0.876953 0.06786,0.545726 -0.31557,1.043506 -0.861329,1.115235 -0.545758,0.07076 -1.047421,-0.31462 -1.121093,-0.859376 l -0.002,-0.01758 c -0.06398,-0.546694 0.32632,-1.043461 0.873047,-1.109375 0.05117,-0.0062 0.102345,-0.0075 0.152344,-0.0059 z m 8.9668,4 A -0.5,0.5 0 0 1 20,15 v 2.5 H 17.5 A -0.5,0.5 0 0 1 17,17 -0.5,0.5 0 0 1 17.5,16.5 H 19 V 15 a -0.5,0.5 0 0 1 0.5,-0.5 z m -16,0 A -0.5,0.5 0 0 1 4,15 v 1.5 H 5.5 A -0.5,0.5 0 0 1 6,17 -0.5,0.5 0 0 1 5.5,17.5 H 3 V 15 a -0.5,0.5 0 0 1 0.5,-0.5 z"/>
 <path style="fill:#ffffff" d="m 7.554129,8 2.961914,0.00195 c 1.944946,0 2.976144,-0.001 2.976144,-0.001 0.273871,0 0.492061,0.251977 0.499024,0.4990235 0,0 0.0088,-0.1957195 0.0088,2.4746095 0,-0.02137 0.492162,-0.586344 1.094726,-1.255859 l 1,-1.215821 0.749637,-0.00295 h 0.155272 v 5 h -0.132812 l -0.725223,-0.0039 -1.024413,-1.238281 C 14.50442,11.575787 14.002527,11.000868 14,10.975586 v 0.0068 l -0.002,2.50293 c -0.03598,0.36894 -0.2657,0.494707 -0.511719,0.514648 l -2.973215,-0.0068 h -2.94043 c -0.421251,0 -0.550216,-0.270007 -0.572265,-0.521484 v -2.488281 l 10e-4,-2.425782 C 7.001394,8.2079255 7.239062,8.000509 7.554129,8 Z m 2.946289,1 c -0.08003,0 -0.160209,0.00543 -0.240235,0.01465 -1.095729,0.1329745 -1.878196,1.123328 -1.750976,2.216797 l 0.0039,0.03516 c 0.147739,1.0904 1.15134,1.857956 2.24707,1.716797 1.043413,-0.142187 1.800192,-1.06385 1.731452,-2.11231 C 12.423915,9.823655 11.554083,9.0061375 10.500418,9 Z m 0.03223,1 c 0.483332,0.01501 0.897588,0.380535 0.959961,0.875977 0.06786,0.545726 -0.316546,1.043505 -0.862305,1.115234 -0.545758,0.07076 -1.047422,-0.312666 -1.121094,-0.857422 l -0.0019,-0.01856 c -0.06398,-0.546694 0.326319,-1.042484 0.873046,-1.108398 0.05117,-0.0062 0.102344,-0.0084 0.152343,-0.0068 z"/>
 <path style="fill:#50beee" d="M 20,5 V 7.5 A -0.5,0.5 0 0 1 19.5,8 -0.5,0.5 0 0 1 19,7.5 V 6 H 17.5 A -0.5,0.5 0 0 1 17,5.5 -0.5,0.5 0 0 1 17.5,5 Z M 5.5,5 A -0.5,0.5 0 0 1 6,5.5 -0.5,0.5 0 0 1 5.5,6 H 4 V 7.5 A -0.5,0.5 0 0 1 3.5,8 -0.5,0.5 0 0 1 3,7.5 V 5 Z m 14,9 A -0.5,0.5 0 0 1 20,14.5 V 17 H 17.5 A -0.5,0.5 0 0 1 17,16.5 -0.5,0.5 0 0 1 17.5,16 H 19 V 14.5 A -0.5,0.5 0 0 1 19.5,14 Z m -16,0 A -0.5,0.5 0 0 1 4,14.5 V 16 H 5.5 A -0.5,0.5 0 0 1 6,16.5 -0.5,0.5 0 0 1 5.5,17 H 3 V 14.5 A -0.5,0.5 0 0 1 3.5,14 Z"/>
 <path style="opacity:0.2;fill:#ffffff" d="M 20.5,3 C 21.328369,3 22,3.6819196 22,4.5234375 v 0.5 C 22,4.1819196 21.328369,3.5 20.5,3.5 H 2.5 C 1.67163,3.5 1,4.1819196 1,5.0234375 v -0.5 C 1,3.6819196 1.67163,3 2.5,3 Z"/>
</svg>
