<svg xmlns="http://www.w3.org/2000/svg" width="22" height="22" version="1.1">
 <g>
  <circle style="opacity:0.2" cx="11" cy="11.5" r="10"/>
  <circle style="fill:#e4e4e4" cx="11" cy="11" r="10"/>
  <path style="opacity:0.2;fill:#ffffff" d="M 11,1 A 10,10 0 0 0 1,11 10,10 0 0 0 1.0098,11.293 10,10 0 0 1 11,1.5 10,10 0 0 1 20.99,11.207 10,10 0 0 0 21,11 10,10 0 0 0 11,1 Z"/>
  <rect style="fill:#50beee" width="11" height="11" x="5" y="5"/>
  <path style="fill:#248afd" d="M 6,4 V 5 H 16 V 4 Z m 0,2 v 1 h 9 V 6 Z M 5,16 v 1 h 11 v -1 z"/>
  <path style="opacity:0.2;fill:#1a1a1a" d="m 6,7.5 v 5 h 9 v -5 z m 2,6 v 1 h 1 v -1 z m 1,1 v 1 h 3 v -1 z m 3,0 h 1 v -1 h -1 z"/>
  <path style="fill:#ffffff" d="m 6,7 v 5 h 9 V 7 Z m 2,6 v 1 h 1 v -1 z m 1,1 v 1 h 3 v -1 z m 3,0 h 1 v -1 h -1 z"/>
  <path style="opacity:0.2" d="m 16,5.5 v 11 h 1 v -4 h 1 v -1 h -1 v -6 z m 2,6 h 1 v -2 H 18 Z M 8,8.5 v 3 h 1 v -3 z m 4,0 v 3 h 1 v -3 z m -6,9 v 1 h 3 v -1 z m 6,0 v 1 h 3 v -1 z"/>
  <path style="fill:#7767c0" d="m 16,5 v 11 h 1 v -4 h 1 V 11 H 17 V 5 Z m 2,6 h 1 V 9 H 18 Z M 8,8 v 3 H 9 V 8 Z m 4,0 v 3 h 1 V 8 Z m -6,9 v 1 h 3 v -1 z m 6,0 v 1 h 3 v -1 z"/>
  <rect style="opacity:0.2" width="9" height=".5" x="6" y="7"/>
  <rect style="opacity:0.2" width="9" height=".5" x="6" y="6"/>
  <rect style="opacity:0.2" width="11" height=".5" x="5" y="16"/>
  <rect style="opacity:0.2" width="3" height=".5" x="6" y="17"/>
  <rect style="opacity:0.2" width="3" height=".5" x="12" y="17"/>
 </g>
</svg>
