<svg width="48" height="48" version="1" xmlns="http://www.w3.org/2000/svg">
 <rect x="4" y="4" width="40" height="40" rx="2" ry="2" style="fill:#e4e4e4"/>
 <path d="m6 4c-1.108 0-2 0.892-2 2v1c0-1.108 0.892-2 2-2h36c1.108 0 2 0.892 2 2v-1c0-1.108-0.892-2-2-2h-36z" fill="#fff" opacity=".2"/>
 <path d="m6 45c-1.108 0-2-0.892-2-2v-1c0 1.108 0.892 2 2 2h36c1.108 0 2-0.892 2-2v1c0 1.108-0.892 2-2 2h-36z" opacity=".2"/>
 <path d="m21 10v6h-6v6h-6v6h6v6h6v6h6v-6h6v-6h6v-6h-6v-6h-6v-6z" style="opacity:.2"/>
 <g transform="matrix(1.5,0,0,1.5,49.313868,-6.1106829)">
  <path d="m-18.875912 14.073789v4h-4v4h4v4h4v-4h4v-4h-4v-4z" style="fill:#ffffff"/>
  <g transform="translate(-32.875912,4.0737886)">
   <rect x="18" y="10" width="4" height="4" style="fill:#ff8074"/>
   <rect x="18" y="18" width="4" height="4" style="fill:#7767c0"/>
   <rect x="22" y="14" width="4" height="4" style="fill:#f9548f"/>
   <rect x="14" y="6" width="4" height="4" style="fill:#c2352a"/>
   <rect x="10" y="10" width="4" height="4" style="fill:#e97e10"/>
   <rect x="10" y="18" width="4" height="4" style="fill:#4bae4f"/>
   <rect x="6" y="14" width="4" height="4" style="fill:#ddb400"/>
   <rect x="14" y="22" width="4" height="4" style="fill:#248afd"/>
  </g>
 </g>
</svg>
