<svg width="48" height="48" version="1" xmlns="http://www.w3.org/2000/svg">
 <rect x="4" y="4" width="40" height="40" rx="2" ry="2" style="fill:#4f4f4f"/>
 <path d="m6 4c-1.108 0-2 0.892-2 2v1c0-1.108 0.892-2 2-2h36c1.108 0 2 0.892 2 2v-1c0-1.108-0.892-2-2-2h-36z" fill="#fff" opacity=".2"/>
 <path d="m6 45c-1.108 0-2-0.892-2-2v-1c0 1.108 0.892 2 2 2h36c1.108 0 2-0.892 2-2v1c0 1.108-0.892 2-2 2h-36z" opacity=".2"/>
 <path d="m21 15v6h-6v6h6v6h6v-6h6v-6h-6v-6h-6z" style="fill:#ffffff"/>
 <rect x="27" y="15" width="6" height="6" style="fill:#ffd2a8"/>
 <rect x="21" y="9" width="6" height="6" style="fill:#df574d"/>
 <rect x="27" y="27" width="6" height="6" style="fill:#9182d7"/>
 <rect x="21" y="33" width="6" height="6" style="fill:#50beee"/>
 <rect x="15" y="27" width="6" height="6" style="fill:#79de70"/>
 <rect x="15" y="15" width="6" height="6" style="fill:#fecd38"/>
 <rect x="9" y="21" width="6" height="6" style="fill:#feff69"/>
 <rect x="33" y="21" width="6" height="6" style="fill:#ff90b8"/>
</svg>
