<svg xmlns="http://www.w3.org/2000/svg" width="48" height="48" version="1.1">
 <path style="opacity:0.2" d="M 41.142857,9.9999999 H 6.8571429 c -1.577847,0 -2.857143,1.2792971 -2.857143,2.8571431 V 37.142857 C 3.9999999,38.720704 5.2792959,40 6.8571429,40 H 41.142857 C 42.720703,40 44,38.720704 44,37.142857 V 12.857143 C 44,11.279297 42.720703,9.9999999 41.142857,9.9999999 Z m 0,0"/>
 <path style="fill:#248afd" d="M 41.142857,8.9999999 H 6.8571429 c -1.577847,0 -2.857143,1.2792971 -2.857143,2.8571431 V 36.142857 C 3.9999999,37.720704 5.2792959,39 6.8571429,39 H 41.142857 C 42.720703,39 44,37.720704 44,36.142857 V 11.857143 C 44,10.279297 42.720703,8.9999999 41.142857,8.9999999 Z m 0,0"/>
 <path style="opacity:0.2" d="m 41,13 v 5 a -1,1 0 0 1 -1,1 -1,1 0 0 1 -1,-1 v -3 h -3 a -1,1 0 0 1 -1,-1 -1,1 0 0 1 1,-1 z m -29,0 a -1,1 0 0 1 1,1 -1,1 0 0 1 -1,1 H 8.9999999 v 3 a -1,1 0 0 1 -1,1 -1,1 0 0 1 -1,-1 v -5 z m 4.107422,6 5.923828,0.0039 c 3.889892,0 5.953125,-0.002 5.953125,-0.002 0.547741,0 0.984121,0.503954 0.998047,0.998047 0,0 0.01751,-0.391439 0.01758,4.949219 0,-0.04273 0.984324,-1.172689 2.189453,-2.511719 l 2,-2.431641 0.5,-0.0059 H 34 v 10 h -0.265625 l -0.451172,-0.0078 -2.048828,-2.476563 C 30.00884,26.151573 29.005053,25.001737 29,24.951172 v 0.01367 l -0.0039,5.005859 c -0.07197,0.73788 -0.5314,0.989415 -1.023438,1.029297 l -5.947265,-0.01367 h -5.88086 c -0.842502,0 -1.100433,-0.540015 -1.144531,-1.042969 v -4.976562 l 0.002,-4.851563 C 15.001952,19.415851 15.477288,19.001018 16.107422,19 Z M 22,21 c -0.160051,0 -0.320418,0.01085 -0.480469,0.0293 -2.191459,0.265949 -3.756392,2.246656 -3.501953,4.433594 l 0.0078,0.07031 c 0.295478,2.1808 2.302681,3.715912 4.49414,3.433594 2.086826,-0.284363 3.600384,-2.127689 3.462904,-4.22461 C 25.846995,22.647309 24.107331,21.012275 22,21 Z m 0.06445,2 c 0.966664,0.03001 1.795176,0.76107 1.919922,1.751953 0.135714,1.091452 -0.633092,2.08701 -1.724609,2.230469 -1.091516,0.14152 -2.094844,-0.625332 -2.242188,-1.714844 l -0.0039,-0.03711 C 19.885714,24.137079 20.666312,23.1455 21.759766,23.013672 21.862096,23.001312 21.964454,22.9969 22.064453,23 Z M 40,31 a -1,1 0 0 1 1,1 v 5 h -5 a -1,1 0 0 1 -1,-1 -1,1 0 0 1 1,-1 h 3 v -3 a -1,1 0 0 1 1,-1 z M 7.9999999,31 a -1,1 0 0 1 1,1 v 3 H 12 a -1,1 0 0 1 1,1 -1,1 0 0 1 -1,1 H 6.9999999 v -5 a -1,1 0 0 1 1,-1 z"/>
 <path style="fill:#ffffff" d="m 16.107422,18 5.923828,0.0039 c 3.889892,0 5.953125,-0.002 5.953125,-0.002 0.547741,0 0.984121,0.503954 0.998047,0.998047 0,0 0.01751,-0.391439 0.01758,4.949219 0,-0.04273 0.984324,-1.172689 2.189453,-2.511719 l 2,-2.431641 0.5,-0.0059 H 34 v 10 h -0.265625 l -0.451172,-0.0078 -2.048828,-2.476563 C 30.00884,25.151573 29.005053,24.001737 29,23.951172 v 0.01367 l -0.0039,5.005859 c -0.07197,0.73788 -0.5314,0.989415 -1.023438,1.029297 l -5.947265,-0.01367 h -5.88086 c -0.842502,0 -1.100433,-0.540015 -1.144531,-1.042969 v -4.976562 l 0.002,-4.851563 C 15.001952,18.415851 15.477288,18.001018 16.107422,18 Z M 22,20 c -0.160051,0 -0.320418,0.01085 -0.480469,0.0293 -2.191459,0.265949 -3.756392,2.246656 -3.501953,4.433594 l 0.0078,0.07031 c 0.295478,2.1808 2.302681,3.715912 4.49414,3.433594 2.086813,-0.284362 3.600371,-2.127688 3.462891,-4.224609 C 25.846995,21.647309 24.107331,20.012275 22,20 Z m 0.06445,2 c 0.966664,0.03001 1.795176,0.76107 1.919922,1.751953 0.135714,1.091452 -0.633092,2.08701 -1.724609,2.230469 -1.091516,0.14152 -2.094844,-0.625332 -2.242188,-1.714844 l -0.0039,-0.03711 c -0.127958,-1.09339 0.65264,-2.084969 1.746094,-2.216797 0.10233,-0.01236 0.204688,-0.01677 0.304687,-0.01367 z"/>
 <path style="fill:#50beee" d="m 41,12 v 5 a -1,1 0 0 1 -1,1 -1,1 0 0 1 -1,-1 v -3 h -3 a -1,1 0 0 1 -1,-1 -1,1 0 0 1 1,-1 z m -29,0 a -1,1 0 0 1 1,1 -1,1 0 0 1 -1,1 H 8.9999999 v 3 a -1,1 0 0 1 -1,1 -1,1 0 0 1 -1,-1 v -5 z m 28,18 a -1,1 0 0 1 1,1 v 5 h -5 a -1,1 0 0 1 -1,-1 -1,1 0 0 1 1,-1 h 3 v -3 a -1,1 0 0 1 1,-1 z M 7.9999999,30 a -1,1 0 0 1 1,1 v 3 H 12 a -1,1 0 0 1 1,1 -1,1 0 0 1 -1,1 H 6.9999999 v -5 a -1,1 0 0 1 1,-1 z"/>
 <path style="opacity:0.2;fill:#ffffff" d="M 41.142578,9 C 42.720424,9 44,10.279576 44,11.857422 v 1 C 44,11.279576 42.720424,10 41.142578,10 H 6.8574219 c -1.577847,0 -2.857422,1.279576 -2.857422,2.857422 v -1 C 3.9999999,10.279576 5.2795749,9 6.8574219,9 Z"/>
</svg>
