<svg xmlns="http://www.w3.org/2000/svg" width="48" height="48" version="1.1">
 <g>
  <circle style="opacity:0.2" cx="24" cy="25" r="20"/>
  <circle style="fill:#e4e4e4" cx="24" cy="24" r="20"/>
  <path style="opacity:0.2;fill:#ffffff" d="M 24,4 A 20,20 0 0 0 4,24 20,20 0 0 0 4.0215,24.582 20,20 0 0 1 24,5 20,20 0 0 1 43.979,24.418 20,20 0 0 0 44,24 20,20 0 0 0 24,4 Z"/>
  <rect style="fill:#50beee" width="22" height="22" x="12" y="13"/>
  <path style="fill:#248afd" d="m 14,11 v 2 h 20 v -2 z m 0,4 v 2 h 18 v -2 z m -2,20 v 2 h 22 v -2 z"/>
  <path style="opacity:0.2;fill:#1a1a1a" d="M 14,18 V 28 H 32 V 18 Z m 4,12 v 2 h 2 v -2 z m 2,2 v 2 h 6 v -2 z m 6,0 h 2 v -2 h -2 z"/>
  <path style="fill:#ffffff" d="M 14,17 V 27 H 32 V 17 Z m 4,12 v 2 h 2 v -2 z m 2,2 v 2 h 6 v -2 z m 6,0 h 2 v -2 h -2 z"/>
  <path style="opacity:0.2" d="m 34,14 v 22 h 2 v -8 h 2 V 26 H 36 V 14 Z m 4,12 h 2 V 22 H 38 Z M 18,20 v 6 h 2 v -6 z m 8,0 v 6 h 2 V 20 Z M 14,38 v 2 h 6 v -2 z m 12,0 v 2 h 6 v -2 z"/>
  <path style="fill:#7767c0" d="m 34,13 v 22 h 2 v -8 h 2 V 25 H 36 V 13 Z m 4,12 h 2 V 21 H 38 Z M 18,19 v 6 h 2 v -6 z m 8,0 v 6 h 2 V 19 Z M 14,37 v 2 h 6 v -2 z m 12,0 v 2 h 6 v -2 z"/>
  <rect style="opacity:0.2" width="18" height="1" x="14" y="17"/>
  <rect style="opacity:0.2" width="18" height="1" x="14" y="15"/>
  <rect style="opacity:0.2" width="22" height="1" x="12" y="35"/>
  <rect style="opacity:0.2" width="6" height="1" x="14" y="37"/>
  <rect style="opacity:0.2" width="6" height="1" x="26" y="37"/>
 </g>
</svg>
