<svg width="32" height="32" version="1.1" xmlns="http://www.w3.org/2000/svg">
 <g>
  <circle cx="16" cy="17" r="14" style="opacity:.2"/>
  <circle cx="16" cy="16" r="14" style="fill:#4f4f4f"/>
  <path d="M 16,2 A 14,14 0 0 0 2,16 14,14 0 0 0 2.0215,16.586 14,14 0 0 1 16,3 14,14 0 0 1 29.979,16.414 14,14 0 0 0 30,16 14,14 0 0 0 16,2 Z" style="fill:#ffffff;opacity:.2"/>
  <g transform="translate(8,9)">
   <path d="m2 1v2h-2v9h2v2h2v2h8v-2h2v-2h2v-9h-2v-2zm2 2h8v2h2v3h-2v2h-8v-2h-2v-3h2zm0 5h2v-2h-2zm8 0v-2h-2v2z" style="fill:#5d5d5d"/>
   <path d="m2 0v2h-2v2h4v-2h8v2h4v-2h-2v-2zm2 5v1h2v-1zm6 0v1h2v-1z" style="fill:#f5f5f5"/>
   <path d="m0 4v7h12v-2h-8v-2h-2v-3zm4 3h2v-1h-2zm8 2h2v-1h2v-4h-2v3h-2zm0-2v-1h-2v1z" style="fill:#c6c6c6"/>
   <path d="m14 8v1h2v-1zm0 1h-2v2h2zm-2 2h-10v2h10z" style="fill:#afadae"/>
   <path d="m14 9v2h2v-2zm0 2h-2v2h2zm-2 2h-8v2h8z" style="fill:#949494"/>
  </g>
 </g>
</svg>
