<svg xmlns="http://www.w3.org/2000/svg" width="32" height="32" version="1.1">
 <path style="opacity:0.2" d="M 28,5.9999999 H 4 c -1.104493,0 -2,0.895508 -2,2.0000002 V 25 c 0,1.104493 0.895507,2 2,2 h 24 c 1.104492,0 2,-0.895507 2,-2 V 8.0000001 C 30,6.8955079 29.104492,5.9999999 28,5.9999999 Z m 0,0"/>
 <path style="fill:#248afd" d="M 28,4.9999999 H 4 c -1.104493,0 -2,0.895508 -2,2.0000002 V 24 c 0,1.104493 0.895507,2 2,2 h 24 c 1.104492,0 2,-0.895507 2,-2 V 7.0000001 C 30,5.8955079 29.104492,4.9999999 28,4.9999999 Z m 0,0"/>
 <path style="opacity:0.2" d="m 28,8 v 3.333984 A -0.66666667,0.66666666 0 0 1 27.333984,12 -0.66666667,0.66666666 0 0 1 26.666016,11.333984 V 9.3339844 h -2 A -0.66666667,0.66666666 0 0 1 24,8.6660156 -0.66666667,0.66666666 0 0 1 24.666016,8 Z M 7.333984,8 A -0.66666667,0.66666666 0 0 1 8,8.6660156 -0.66666667,0.66666666 0 0 1 7.333984,9.3339844 h -2 V 11.333984 A -0.66666667,0.66666666 0 0 1 4.666016,12 -0.66666667,0.66666666 0 0 1 4,11.333984 V 8 Z m 2.482422,4 4.365235,0.002 h 4.085937 c 0.403599,0 0.7163,0.377478 0.726563,0.748047 0,0 0.01167,-0.294542 0.01172,3.710938 l 3.396483,-3.459032 0.36914,-0.0039 H 23 v 7.005859 h -0.195313 l -0.332031,-0.0078 -3.466797,-3.533203 v 0.01172 l -0.002,3.753907 C 18.950876,20.781924 18.62037,20.970088 18.257812,21 L 14.175781,20.9902 H 9.84375 C 9.222957,20.9902 9.032494,20.584211 9,20.206997 V 16.474575 L 9.002,12.835904 C 9.001881,12.3114 9.352096,12.000764 9.816406,12 Z m 4.191406,1.5 c -0.120028,0 -0.241299,0.0076 -0.361328,0.02148 -1.643464,0.19946 -2.817768,1.685974 -2.626953,3.326172 l 0.0059,0.05273 c 0.221591,1.635594 1.727628,2.785956 3.371093,2.574218 1.564952,-0.213275 2.700758,-1.595284 2.597657,-3.167968 -0.101564,-1.571154 -1.405955,-2.797436 -2.986329,-2.806641 z m 0.04102,1.5 c 0.724998,0.02251 1.345893,0.571294 1.439453,1.314453 0.101785,0.818586 -0.47433,1.566234 -1.292969,1.673828 -0.818636,0.106135 -1.571131,-0.469978 -1.68164,-1.287109 l -0.0039,-0.02734 c -0.09597,-0.820041 0.490445,-1.563242 1.310536,-1.662113 0.07675,-0.0093 0.153517,-0.01405 0.228516,-0.01172 z m 13.285152,6 A -0.66666667,0.66666666 0 0 1 28,21.666016 V 25 H 24.666016 A -0.66666667,0.66666666 0 0 1 24,24.333984 -0.66666667,0.66666666 0 0 1 24.666016,23.666016 h 2 v -2 A -0.66666667,0.66666666 0 0 1 27.333984,21 Z M 4.666016,21 a -0.66666667,0.66666666 0 0 1 0.667968,0.666016 v 2 h 2 A -0.66666667,0.66666666 0 0 1 8,24.333984 -0.66666667,0.66666666 0 0 1 7.333984,25 H 4 V 21.666016 A -0.66666667,0.66666666 0 0 1 4.666016,21 Z"/>
 <path style="fill:#ffffff" d="m 9.816406,11 4.365235,0.002 h 4.085937 c 0.403599,0 0.7163,0.377478 0.726563,0.748047 0,0 0.01167,-0.294542 0.01172,3.710938 l 3.396485,-3.458985 0.36914,-0.0039 H 23 v 7.005859 h -0.195313 l -0.332031,-0.0078 -3.466797,-3.533203 v 0.01172 l -0.002,3.753907 C 18.950876,19.781924 18.62037,19.970088 18.257812,20 l -4.082031,-0.0098 H 9.84375 C 9.222957,19.990234 9.032494,19.584245 9,19.207031 v -3.732422 l 0.00195,-3.638671 C 9.001881,11.311401 9.352096,11.000764 9.816406,11 Z m 4.191406,1.5 c -0.120028,0 -0.241299,0.0076 -0.361328,0.02148 -1.643464,0.19946 -2.817768,1.685974 -2.626953,3.326172 l 0.0059,0.05274 c 0.221591,1.635594 1.727628,2.785956 3.371093,2.574218 1.564952,-0.213275 2.700758,-1.595284 2.597657,-3.167968 C 16.892577,13.735487 15.588186,12.509205 14.007812,12.5 Z m 0.04102,1.5 c 0.724998,0.02251 1.345893,0.571294 1.439453,1.314453 0.101785,0.818586 -0.47433,1.566234 -1.292969,1.673828 -0.818636,0.106135 -1.571131,-0.469978 -1.68164,-1.287109 l -0.0039,-0.02734 c -0.09596,-0.820037 0.490455,-1.563238 1.310546,-1.662109 0.07675,-0.0093 0.153517,-0.01405 0.228516,-0.01172 z"/>
 <path style="fill:#50beee" d="m 28,7 v 3.333984 A -0.66666667,0.66666666 0 0 1 27.333984,11 -0.66666667,0.66666666 0 0 1 26.666016,10.333984 V 8.3339844 h -2 A -0.66666667,0.66666666 0 0 1 24,7.6660156 -0.66666667,0.66666666 0 0 1 24.666016,7 Z M 7.333984,7 A -0.66666667,0.66666666 0 0 1 8,7.6660156 -0.66666667,0.66666666 0 0 1 7.333984,8.3339844 h -2 V 10.333984 A -0.66666667,0.66666666 0 0 1 4.666016,11 -0.66666667,0.66666666 0 0 1 4,10.333984 V 7 Z m 20,13 A -0.66666667,0.66666666 0 0 1 28,20.666016 V 24 H 24.666016 A -0.66666667,0.66666666 0 0 1 24,23.333984 -0.66666667,0.66666666 0 0 1 24.666016,22.666016 h 2 v -2 A -0.66666667,0.66666666 0 0 1 27.333984,20 Z M 4.666016,20 a -0.66666667,0.66666666 0 0 1 0.667968,0.666016 v 2 h 2 A -0.66666667,0.66666666 0 0 1 8,23.333984 -0.66666667,0.66666666 0 0 1 7.333984,24 H 4 V 20.666016 A -0.66666667,0.66666666 0 0 1 4.666016,20 Z"/>
 <path style="opacity:0.2;fill:#ffffff" d="m 28,5 c 1.104492,0 2,0.8955078 2,2 V 8 C 30,6.8955078 29.104492,6 28,6 H 4 C 2.895507,6 2,6.8955078 2,8 V 7 C 2,5.8955078 2.895507,5 4,5 Z"/>
</svg>
