<svg xmlns="http://www.w3.org/2000/svg" width="32" height="32" version="1.1">
 <g>
  <rect style="fill:#50beee" width="22" height="22" x="2" y="4"/>
  <path style="fill:#248afd" d="M 4,2 V 4 H 24 V 2 Z M 4,6 V 8 H 22 V 6 Z M 2,26 v 2 h 22 v -2 z"/>
  <path style="opacity:0.2;fill:#1a1a1a" d="M 4,9 V 19 H 22 V 9 Z m 4,12 v 2 h 2 v -2 z m 2,2 v 2 h 6 v -2 z m 6,0 h 2 v -2 h -2 z"/>
  <path style="fill:#ffffff" d="M 4,8 V 18 H 22 V 8 Z m 4,12 v 2 h 2 v -2 z m 2,2 v 2 h 6 v -2 z m 6,0 h 2 v -2 h -2 z"/>
  <path style="opacity:0.2" d="m 24,5 v 22 h 2 v -8 h 2 V 17 H 26 V 5 Z m 4,12 h 2 V 13 H 28 Z M 8,11 v 6 h 2 v -6 z m 8,0 v 6 h 2 V 11 Z M 4,29 v 2 h 6 v -2 z m 12,0 v 2 h 6 v -2 z"/>
  <path style="fill:#7767c0" d="m 24,4 v 22 h 2 v -8 h 2 V 16 H 26 V 4 Z m 4,12 h 2 V 12 H 28 Z M 8,10 v 6 h 2 v -6 z m 8,0 v 6 h 2 V 10 Z M 4,28 v 2 h 6 v -2 z m 12,0 v 2 h 6 v -2 z"/>
  <rect style="opacity:0.2" width="18" height="1" x="4" y="8"/>
  <rect style="opacity:0.2" width="18" height="1" x="4" y="6"/>
  <rect style="opacity:0.2" width="22" height="1" x="2" y="26"/>
  <rect style="opacity:0.2" width="6" height="1" x="4" y="28"/>
  <rect style="opacity:0.2" width="6" height="1" x="16" y="28"/>
 </g>
</svg>
