<svg width="24" height="24" version="1" xmlns="http://www.w3.org/2000/svg">
 <rect x="2" y="1.75" width="20" height="20" rx="1" ry="1" style="fill:#4f4f4f"/>
 <path d="m3 1.75c-0.554 0-1 0.446-1 1v0.5c0-0.554 0.446-1 1-1h18c0.554 0 1 0.446 1 1v-0.5c0-0.554-0.446-1-1-1z" fill="#ffffff" opacity=".2"/>
 <path d="m3 22.25c-0.554 0-1-0.446-1-1v-0.5c0 0.554 0.446 1 1 1h18c0.554 0 1-0.446 1-1v0.5c0 0.554-0.446 1-1 1z" opacity=".2"/>
 <g transform="translate(20,1.7500002)">
  <rect x="-7.0542269" y="10.872923" width="2" height="2" style="fill:#9182d7"/>
  <g transform="translate(.054227 .1270769)">
   <rect x="-11.054227" y="10.872923" width="2" height="2" style="fill:#79de70"/>
   <path d="m-9.054227 6.8729231v2h-2v1.9999999h2v2h2v-2h2v-1.9999999h-2v-2z" style="fill:#ffffff"/>
   <rect x="-9.0542269" y="4.8729229" width="2" height="2" style="fill:#df574d"/>
   <rect x="-7.0542269" y="6.8729229" width="2" height="2" style="fill:#ffd2a8"/>
   <rect x="-5.0542269" y="8.8729229" width="2" height="2" style="fill:#ff90b8"/>
   <rect x="-9.0542269" y="12.872923" width="2" height="2" style="fill:#50beee"/>
   <rect x="-13.054227" y="8.8729229" width="2" height="2" style="fill:#feff69"/>
   <rect x="-11.054227" y="6.8729229" width="2" height="2" style="fill:#fecd38"/>
  </g>
 </g>
</svg>
