<svg xmlns="http://www.w3.org/2000/svg" width="24" height="24" version="1.1">
 <path style="opacity:0.2" d="M 21.5,4.5 H 3.5 C 2.67163,4.5 2,5.1822917 2,6.0238096 V 18.976189 C 2,19.817709 2.67163,20.5 3.5,20.5 h 18 c 0.828369,0 1.5,-0.682291 1.5,-1.523811 V 6.0238096 C 23,5.1822917 22.328369,4.5 21.5,4.5 Z m 0,0"/>
 <path style="fill:#248afd" d="M 21.5,4 H 3.5 C 2.67163,4 2,4.6822917 2,5.5238096 V 18.476189 C 2,19.317709 2.67163,20 3.5,20 h 18 C 22.328369,20 23,19.317709 23,18.476189 V 5.5238096 C 23,4.6822917 22.328369,4 21.5,4 Z m 0,0"/>
 <path style="opacity:0.2" d="M 21,6.5 V 9 A -0.5,0.5 0 0 1 20.5,9.5 -0.5,0.5 0 0 1 20,9 V 7.5 H 18.5 A -0.5,0.5 0 0 1 18,7 -0.5,0.5 0 0 1 18.5,6.5 Z M 6.5,6.5 A -0.5,0.5 0 0 1 7,7 -0.5,0.5 0 0 1 6.5,7.5 H 5 V 9 A -0.5,0.5 0 0 1 4.5,9.5 -0.5,0.5 0 0 1 4,9 V 6.5 Z m 7.992188,3 c 0.27387,0 0.493036,0.2529535 0.5,0.5 0,0 0.0078,-0.1957196 0.0078,2.474609 0,-0.02137 0.493139,-0.586344 1.095703,-1.255859 l 1,-1.216797 L 17.84375,10 H 18 v 5 H 17.867187 L 17.140625,14.9961 16.117187,13.757818 C 15.50442,13.075827 15.002527,12.501844 15,12.476562 v 0.0059 l -0.002,2.501953 c -0.03598,0.36894 -0.2657,0.495684 -0.511719,0.515625 l -2.972656,-0.0078 H 8.572219 c -0.421251,0 -0.550217,-0.268055 -0.572266,-0.519532 v -2.488281 l 0.002,-2.427734 C 8.001976,9.7069491 8.239621,9.500509 8.554688,9.5 l 2.960937,0.00195 C 13.460571,9.5019531 14.492188,9.5 14.492188,9.5 Z M 11.5,10.5 c -0.08003,0 -0.160208,0.0064 -0.240234,0.01563 -1.095729,0.132975 -1.87722,1.123328 -1.75,2.216797 l 0.0039,0.03516 c 0.147739,1.0904 1.150364,1.857956 2.246094,1.716797 1.043419,-0.142196 1.801168,-1.06483 1.732428,-2.11329 C 13.424473,11.323655 12.553665,10.506137 11.5,10.5 Z m 0.0332,1 c 0.483332,0.01501 0.896611,0.381511 0.958985,0.876953 0.06786,0.545726 -0.31557,1.043506 -0.861329,1.115235 -0.545758,0.07076 -1.047421,-0.31462 -1.121093,-0.859376 l -0.002,-0.01758 c -0.06398,-0.546694 0.32632,-1.043461 0.873047,-1.109375 0.05117,-0.0062 0.102345,-0.0075 0.152344,-0.0059 z m 8.9668,4 A -0.5,0.5 0 0 1 21,16 v 2.5 H 18.5 A -0.5,0.5 0 0 1 18,18 -0.5,0.5 0 0 1 18.5,17.5 H 20 V 16 a -0.5,0.5 0 0 1 0.5,-0.5 z m -16,0 A -0.5,0.5 0 0 1 5,16 v 1.5 H 6.5 A -0.5,0.5 0 0 1 7,18 -0.5,0.5 0 0 1 6.5,18.5 H 4 V 16 a -0.5,0.5 0 0 1 0.5,-0.5 z"/>
 <path style="fill:#ffffff" d="m 8.554129,9 2.961914,0.00195 c 1.944946,0 2.976144,-0.001 2.976144,-0.001 0.273871,0 0.492061,0.251977 0.499024,0.4990235 0,0 0.0088,-0.1957195 0.0088,2.4746095 0,-0.02137 0.492162,-0.586344 1.094726,-1.255859 l 1,-1.215821 0.749637,-0.00295 h 0.155272 v 5 h -0.132812 l -0.725223,-0.0039 -1.024414,-1.238281 C 15.50442,12.575787 15.002527,12.000868 15,11.975586 v 0.0068 l -0.002,2.50293 c -0.03598,0.36894 -0.2657,0.494707 -0.511719,0.514648 l -2.973215,-0.0068 h -2.94043 c -0.421251,0 -0.550216,-0.270007 -0.572265,-0.521484 v -2.488281 l 0.001,-2.425782 C 8.001394,9.2079255 8.239062,9.000509 8.554129,9 Z m 2.946289,1 c -0.08003,0 -0.160209,0.0054 -0.240235,0.01465 -1.095729,0.132974 -1.878196,1.123328 -1.750976,2.216797 l 0.0039,0.03516 c 0.147739,1.0904 1.15134,1.857956 2.24707,1.716797 1.043413,-0.142187 1.800192,-1.06385 1.731452,-2.11231 C 13.423915,10.823655 12.554083,10.006137 11.500418,10 Z m 0.03223,1 c 0.483332,0.01501 0.897588,0.380535 0.959961,0.875977 0.06786,0.545726 -0.316546,1.043505 -0.862305,1.115234 -0.545758,0.07076 -1.047422,-0.312666 -1.121094,-0.857422 l -0.0019,-0.01856 c -0.06398,-0.546694 0.326319,-1.042484 0.873046,-1.108398 0.05117,-0.0062 0.102344,-0.0084 0.152343,-0.0068 z"/>
 <path style="fill:#50beee" d="M 21,6 V 8.5 A -0.5,0.5 0 0 1 20.5,9 -0.5,0.5 0 0 1 20,8.5 V 7 H 18.5 A -0.5,0.5 0 0 1 18,6.5 -0.5,0.5 0 0 1 18.5,6 Z M 6.5,6 A -0.5,0.5 0 0 1 7,6.5 -0.5,0.5 0 0 1 6.5,7 H 5 V 8.5 A -0.5,0.5 0 0 1 4.5,9 -0.5,0.5 0 0 1 4,8.5 V 6 Z m 14,9 A -0.5,0.5 0 0 1 21,15.5 V 18 H 18.5 A -0.5,0.5 0 0 1 18,17.5 -0.5,0.5 0 0 1 18.5,17 H 20 V 15.5 A -0.5,0.5 0 0 1 20.5,15 Z m -16,0 A -0.5,0.5 0 0 1 5,15.5 V 17 H 6.5 A -0.5,0.5 0 0 1 7,17.5 -0.5,0.5 0 0 1 6.5,18 H 4 V 15.5 A -0.5,0.5 0 0 1 4.5,15 Z"/>
 <path style="opacity:0.2;fill:#ffffff" d="M 21.5,4 C 22.328369,4 23,4.6819196 23,5.5234375 v 0.5 C 23,5.1819196 22.328369,4.5 21.5,4.5 H 3.5 C 2.67163,4.5 2,5.1819196 2,6.0234375 v -0.5 C 2,4.6819196 2.67163,4 3.5,4 Z"/>
</svg>
