<svg xmlns="http://www.w3.org/2000/svg" width="16" height="16" version="1.1">
 <rect style="fill:#50beee" width="11" height="11" x="1" y="2"/>
 <path style="fill:#248afd" d="M 2,1 V 2 H 12 V 1 Z m 0,2 v 1 h 9 V 3 Z M 1,13 v 1 h 11 v -1 z"/>
 <path style="fill:#ffffff" d="m 2,4 v 5 h 9 V 4 Z m 2,6 v 1 h 1 v -1 z m 1,1 v 1 h 3 v -1 z m 3,0 H 9 V 10 H 8 Z"/>
 <path style="fill:#7767c0" d="m 12,2 v 11 h 1 V 9 h 1 V 8 H 13 V 2 Z m 2,6 h 1 V 6 H 14 Z M 4,5 V 8 H 5 V 5 Z M 8,5 V 8 H 9 V 5 Z m -6,9 v 1 h 3 v -1 z m 6,0 v 1 h 3 v -1 z"/>
</svg>
